<?xml version="1.0" encoding="UTF-8"?>
<svg id="Layer_1" data-name="Layer 1" xmlns="http://www.w3.org/2000/svg" viewBox="0 0 850.39 850.39">
  <defs>
    <style>
      .cls-1 {
        fill: #db2764;
      }

      .cls-1, .cls-2 {
        fill-rule: evenodd;
      }

      .cls-2 {
        fill: #b0d249;
      }

      .cls-3 {
        fill: #414042;
      }
    </style>
  </defs>
  <g>
    <path class="cls-3" d="M451.58,347.72v33.58h-7.15v-20.88c-.45,1.28-1.22,2.95-2.29,5.03l-5.83,11.71h-5.67l-5.94-11.71c-1.08-2.11-1.84-3.78-2.29-5.03v20.88h-7.15v-33.58h7.56l7.67,14.72c.59,1.14,1.14,2.31,1.66,3.5.52,1.19.93,2.24,1.24,3.13.49-1.59,1.46-3.8,2.93-6.63l7.8-14.72h7.46Z"/>
    <path class="cls-3" d="M458.41,381.29v-35.65l7-.67v36.32h-7Z"/>
    <path class="cls-3" d="M489.01,358.99c1.54,1.19,2.31,3.15,2.31,5.88v16.43h-5.96l-.57-1.81c-1.28.93-2.56,1.59-3.82,1.97-1.27.38-2.59.57-3.98.57-1.46,0-2.74-.28-3.85-.83s-1.97-1.32-2.57-2.31c-.61-.98-.91-2.12-.91-3.39,0-2.73,1.35-4.81,4.06-6.24,2.7-1.43,6.24-2.24,10.61-2.41v-.57c0-.97-.09-1.73-.29-2.28-.19-.55-.53-.96-1.01-1.22-.49-.26-1.16-.39-2.03-.39-2.18,0-4.66.88-7.44,2.64l-2.71-4.25c1.87-1.21,3.69-2.11,5.47-2.69,1.78-.59,3.72-.88,5.83-.88,3.04,0,5.33.6,6.87,1.79ZM478.36,355.96l-2.28-3.26,9.27-7.15,3.47,5.6-10.47,4.82ZM477.6,376.34c.45.4,1.12.6,2,.6,1.44,0,3.01-.47,4.73-1.4v-4.51c-2.56.14-4.43.54-5.62,1.19-1.19.66-1.79,1.45-1.79,2.38,0,.76.23,1.34.68,1.74Z"/>
    <path class="cls-3" d="M519.14,344.97v36.32h-5.96l-.51-1.61c-2.29,1.55-4.64,2.33-7.07,2.33-3.22,0-5.66-1.01-7.3-3.03s-2.47-4.97-2.47-8.83c0-3.04.59-5.53,1.77-7.46,1.18-1.93,2.69-3.33,4.55-4.2,1.85-.86,3.82-1.3,5.9-1.3,1.28,0,2.65.19,4.11.57v-12.12l6.99-.67ZM504.17,375.13c.73,1.07,1.82,1.61,3.28,1.61.8,0,1.58-.12,2.34-.36.76-.24,1.55-.6,2.35-1.09v-12.75c-1.08-.24-2.08-.36-3.02-.36-1.84,0-3.31.68-4.4,2.05-1.09,1.37-1.64,3.33-1.64,5.88,0,2.28.36,3.96,1.09,5.03Z"/>
    <path class="cls-3" d="M545.88,371.14h-14.92c.21,1.94.85,3.36,1.92,4.27,1.07.92,2.35,1.37,3.83,1.37,1.1,0,2.18-.16,3.21-.47,1.04-.31,2.14-.81,3.32-1.5l2.38,4.25c-1.24.93-2.68,1.66-4.3,2.18-1.62.52-3.39.78-5.28.78-2.28,0-4.33-.41-6.14-1.24-1.81-.83-3.26-2.15-4.35-3.96-1.09-1.81-1.63-4.15-1.63-7.02,0-2.62.46-4.89,1.37-6.79.92-1.9,2.25-3.34,3.99-4.33,1.74-.98,3.81-1.48,6.19-1.48s4.22.45,5.83,1.35c1.61.9,2.81,2.12,3.6,3.68.79,1.55,1.19,3.32,1.19,5.29,0,.69-.07,1.9-.21,3.63ZM532.63,363.08c-.71.74-1.21,1.91-1.47,3.5h7.93v-.16c0-1.59-.33-2.73-1-3.42-.66-.69-1.55-1.04-2.64-1.04-1.16,0-2.1.37-2.82,1.11Z"/>
    <path class="cls-3" d="M568.99,357.98v3.11l-10.88,14.35h10.73v5.86h-20.67v-3.21l10.99-14.25h-10.21l.78-5.85h19.27ZM556.55,355.59l-5.49-5.6,2.9-2.85,5.18,3.32,5.18-3.37,2.8,2.9-5.49,5.6h-5.08Z"/>
    <path class="cls-3" d="M433.8,399.92c1.86.85,3.26,2.04,4.2,3.58.93,1.54,1.4,3.33,1.4,5.36s-.48,3.89-1.42,5.54c-.95,1.66-2.38,2.98-4.3,3.96-1.92.98-4.27,1.48-7.07,1.48h-6.01v12.38h-4.77v-33.58h11.19c2.66,0,4.92.42,6.79,1.27ZM432.38,414.04c1.36-1.17,2.05-2.83,2.05-4.97s-.63-3.65-1.89-4.74-3.14-1.63-5.62-1.63h-6.32v13.11h5.65c2.73,0,4.77-.59,6.14-1.76Z"/>
    <path class="cls-3" d="M457.12,409.01c.48.07,1,.17,1.55.31l-.83,4.61c-1.17-.41-2.25-.62-3.21-.62-1.11,0-2.12.24-3.06.73-.93.48-1.83,1.4-2.69,2.75v15.44h-4.46v-22.75l4.46-.47v3.26c.86-1.1,1.87-1.94,3-2.51s2.35-.86,3.63-.86c.59,0,1.12.03,1.61.1Z"/>
    <path class="cls-3" d="M480.54,421.66h-15.8c.03,2.59.66,4.47,1.89,5.65,1.23,1.17,2.81,1.76,4.74,1.76,1.38,0,2.58-.17,3.6-.52,1.02-.35,2.15-.88,3.39-1.61l1.71,3.16c-2.83,1.83-5.8,2.75-8.91,2.75-3.32,0-5.97-.92-7.95-2.77-1.99-1.85-2.98-4.78-2.98-8.78,0-2.28.41-4.35,1.24-6.22.83-1.87,2.06-3.36,3.71-4.48,1.64-1.12,3.65-1.68,6.04-1.68,2,0,3.71.41,5.13,1.22,1.42.81,2.49,1.93,3.21,3.34.73,1.42,1.09,3.04,1.09,4.87l-.1,3.32ZM466.99,413.99c-1.02,1.07-1.68,2.54-1.99,4.4h11.3v-.21c0-1.93-.44-3.39-1.32-4.35-.88-.97-2.13-1.45-3.76-1.45-1.8,0-3.2.54-4.22,1.61Z"/>
    <path class="cls-3" d="M488,432.1c-1.62-.5-3.13-1.27-4.51-2.31l1.97-3.16c2.52,1.8,5.15,2.69,7.88,2.69,1.55,0,2.75-.27,3.58-.8.83-.53,1.24-1.32,1.24-2.36,0-.83-.37-1.55-1.11-2.15-.74-.6-2.05-1.15-3.91-1.63l-1.61-.41c-2.42-.62-4.19-1.44-5.31-2.46-1.12-1.02-1.68-2.37-1.68-4.07,0-1.28.36-2.41,1.09-3.39.73-.98,1.74-1.75,3.03-2.31,1.3-.55,2.75-.83,4.38-.83s3.05.18,4.48.54c1.43.36,2.89.98,4.38,1.84l-1.81,3.16c-1.42-.76-2.64-1.29-3.68-1.58-1.04-.29-2.14-.44-3.32-.44-1.24,0-2.22.25-2.93.75-.71.5-1.06,1.17-1.06,1.99,0,.73.28,1.29.86,1.68.57.4,1.56.79,2.98,1.17l1.61.41c1.97.52,3.55,1.11,4.74,1.76,1.19.66,2.06,1.44,2.62,2.36.55.92.83,2.01.83,3.29,0,1.38-.35,2.6-1.06,3.65-.71,1.05-1.75,1.87-3.13,2.46-1.38.59-3.06.88-5.03.88s-3.87-.25-5.49-.75ZM491.06,406.37l-5.34-5.54,1.92-1.71,5.49,3.68,5.49-3.73,1.87,1.76-5.34,5.54h-4.09Z"/>
    <path class="cls-3" d="M510.9,431.27c-1.62-1.05-2.83-2.49-3.63-4.3-.79-1.81-1.19-3.86-1.19-6.14,0-2.76.52-5.03,1.55-6.81,1.04-1.78,2.44-3.07,4.2-3.89,1.76-.81,3.76-1.22,6.01-1.22,2.42,0,4.44.53,6.06,1.58,1.62,1.05,2.83,2.48,3.63,4.27.79,1.8,1.19,3.83,1.19,6.11,0,2.8-.52,5.09-1.55,6.87-1.04,1.78-2.44,3.07-4.2,3.89-1.76.81-3.77,1.22-6.01,1.22-2.42,0-4.44-.53-6.06-1.58ZM524.06,420.83c0-2.52-.54-4.53-1.63-6.04-1.09-1.5-2.72-2.25-4.9-2.25-2.42,0-4.15.73-5.21,2.2-1.05,1.47-1.58,3.5-1.58,6.09s.55,4.59,1.66,6.11c1.1,1.52,2.76,2.28,4.97,2.28,4.46,0,6.68-2.8,6.68-8.39Z"/>
    <path class="cls-3" d="M552.66,409.53v.31l-9.07,22.38h-4.09l-9.28-22.38v-.31h4.87l5.49,14.61c.14.35.41,1.14.83,2.38l.31.98c.34-1.17.71-2.3,1.09-3.37l5.18-14.61h4.66Z"/>
    <path class="cls-3" d="M558.16,432.1c-1.62-.5-3.13-1.27-4.51-2.31l1.97-3.16c2.52,1.8,5.15,2.69,7.88,2.69,1.55,0,2.75-.27,3.58-.8.83-.53,1.24-1.32,1.24-2.36,0-.83-.37-1.55-1.11-2.15-.74-.6-2.05-1.15-3.91-1.63l-1.61-.41c-2.42-.62-4.19-1.44-5.31-2.46-1.12-1.02-1.68-2.37-1.68-4.07,0-1.28.36-2.41,1.09-3.39.73-.98,1.74-1.75,3.03-2.31,1.3-.55,2.75-.83,4.38-.83s3.05.18,4.48.54c1.43.36,2.89.98,4.38,1.84l-1.81,3.16c-1.42-.76-2.64-1.29-3.68-1.58-1.04-.29-2.14-.44-3.32-.44-1.24,0-2.22.25-2.93.75-.71.5-1.06,1.17-1.06,1.99,0,.73.28,1.29.86,1.68.57.4,1.56.79,2.98,1.17l1.61.41c1.97.52,3.55,1.11,4.74,1.76,1.19.66,2.06,1.44,2.62,2.36.55.92.83,2.01.83,3.29,0,1.38-.35,2.6-1.06,3.65-.71,1.05-1.75,1.87-3.13,2.46-1.38.59-3.06.88-5.03.88s-3.87-.25-5.49-.75Z"/>
    <path class="cls-3" d="M587.64,420.1l9.9,11.81v.31h-5.44l-9.59-11.87v11.87h-4.46v-35.65l4.46-.52v23.94l9.64-10.47h4.92v.31l-9.43,10.26Z"/>
    <path class="cls-3" d="M619.5,421.66h-15.8c.03,2.59.66,4.47,1.89,5.65,1.23,1.17,2.81,1.76,4.74,1.76,1.38,0,2.58-.17,3.6-.52,1.02-.35,2.15-.88,3.39-1.61l1.71,3.16c-2.83,1.83-5.8,2.75-8.91,2.75-3.32,0-5.97-.92-7.95-2.77-1.99-1.85-2.98-4.78-2.98-8.78,0-2.28.41-4.35,1.24-6.22.83-1.87,2.06-3.36,3.71-4.48,1.64-1.12,3.65-1.68,6.04-1.68,2,0,3.71.41,5.13,1.22,1.42.81,2.49,1.93,3.21,3.34.73,1.42,1.09,3.04,1.09,4.87l-.1,3.32ZM605.95,413.99c-1.02,1.07-1.68,2.54-1.99,4.4h11.3v-.21c0-1.93-.44-3.39-1.32-4.35-.88-.97-2.13-1.45-3.76-1.45-1.8,0-3.2.54-4.22,1.61ZM607.64,406.89l-1.71-2.02,8.08-6.58,2.64,3.68-9.02,4.92Z"/>
    <path class="cls-3" d="M642.77,410.57c1.24,1.11,1.87,2.9,1.87,5.39v16.27h-4.46v-14.46c0-1.28-.13-2.27-.39-2.98-.26-.71-.69-1.22-1.3-1.53s-1.43-.47-2.46-.47-2.13.14-3.29.41c-1.16.28-2.24.66-3.24,1.14v17.88h-4.46v-35.65l4.46-.52v15.08c2.83-1.48,5.56-2.23,8.19-2.23,2.14,0,3.83.55,5.08,1.66Z"/>
    <path class="cls-3" d="M654.63,431.27c-1.62-1.05-2.83-2.49-3.63-4.3s-1.19-3.86-1.19-6.14c0-2.76.52-5.03,1.55-6.81,1.04-1.78,2.44-3.07,4.2-3.89,1.76-.81,3.76-1.22,6.01-1.22,2.42,0,4.44.53,6.06,1.58,1.62,1.05,2.83,2.48,3.63,4.27.79,1.8,1.19,3.83,1.19,6.11,0,2.8-.52,5.09-1.55,6.87-1.04,1.78-2.44,3.07-4.2,3.89-1.76.81-3.77,1.22-6.01,1.22-2.42,0-4.44-.53-6.06-1.58ZM667.79,420.83c0-2.52-.54-4.53-1.63-6.04-1.09-1.5-2.72-2.25-4.9-2.25-2.42,0-4.15.73-5.21,2.2-1.05,1.47-1.58,3.5-1.58,6.09s.55,4.59,1.66,6.11c1.1,1.52,2.76,2.28,4.97,2.28,4.46,0,6.68-2.8,6.68-8.39Z"/>
    <path class="cls-3" d="M417.12,483.03c-1.62-.5-3.13-1.27-4.51-2.31l1.97-3.16c2.52,1.8,5.15,2.7,7.88,2.7,1.55,0,2.75-.27,3.58-.8.83-.53,1.24-1.32,1.24-2.36,0-.83-.37-1.55-1.11-2.15-.74-.6-2.05-1.15-3.91-1.63l-1.61-.41c-2.42-.62-4.19-1.44-5.31-2.46-1.12-1.02-1.68-2.37-1.68-4.07,0-1.28.36-2.41,1.09-3.39.73-.98,1.74-1.75,3.03-2.31,1.3-.55,2.75-.83,4.38-.83s3.05.18,4.48.54,2.89.98,4.38,1.84l-1.81,3.16c-1.42-.76-2.64-1.29-3.68-1.58-1.04-.29-2.14-.44-3.32-.44-1.24,0-2.22.25-2.93.75-.71.5-1.06,1.17-1.06,1.99,0,.73.28,1.29.86,1.68.57.4,1.56.79,2.98,1.17l1.61.41c1.97.52,3.55,1.11,4.74,1.76,1.19.66,2.06,1.44,2.62,2.36.55.92.83,2.01.83,3.29,0,1.38-.35,2.6-1.06,3.65s-1.75,1.87-3.13,2.46c-1.38.59-3.06.88-5.03.88s-3.87-.25-5.49-.75Z"/>
    <path class="cls-3" d="M452.28,461.66c1.33,1.21,1.99,3.11,1.99,5.7v15.8h-4.04l-.26-1.97c-2.38,1.73-5.13,2.59-8.24,2.59-1.31,0-2.49-.25-3.52-.75-1.04-.5-1.84-1.21-2.41-2.12s-.85-1.96-.85-3.14c0-1.9.67-3.48,2.02-4.74,1.35-1.26,3.14-2.18,5.39-2.77,2.24-.59,4.73-.92,7.46-.99v-1.14c0-1.55-.31-2.69-.93-3.39-.62-.71-1.68-1.06-3.16-1.06-2.52,0-5.15.9-7.88,2.69l-1.97-3.11c3.32-2.28,6.79-3.42,10.41-3.42,2.66,0,4.65.6,5.98,1.81ZM440.51,479.33c.54.45,1.34.67,2.41.67,2.35,0,4.65-.69,6.89-2.07v-5.39c-3.01.14-5.44.6-7.31,1.4s-2.8,1.92-2.8,3.37c0,.9.27,1.57.8,2.02Z"/>
    <path class="cls-3" d="M492.46,461.5c1.17,1.11,1.76,2.9,1.76,5.39v16.27h-4.46v-14.46c0-1.28-.12-2.27-.36-2.98-.24-.71-.62-1.22-1.14-1.53-.52-.31-1.24-.47-2.18-.47-1,0-2.05.15-3.16.44-1.11.29-2.14.68-3.11,1.17.07.69.1,1.21.1,1.55v16.27h-4.46v-14.46c0-1.28-.11-2.27-.34-2.98-.23-.71-.6-1.22-1.11-1.53s-1.24-.47-2.18-.47-1.99.15-3.06.44c-1.07.29-2.09.67-3.06,1.11v17.88h-4.46v-22.69l4.46-.52v2.18c2.66-1.52,5.25-2.28,7.77-2.28s4.35.85,5.39,2.54c1.24-.73,2.65-1.33,4.22-1.81,1.57-.48,3.12-.73,4.64-.73,1.97,0,3.54.55,4.72,1.66Z"/>
    <path class="cls-3" d="M504.22,482.2c-1.62-1.05-2.83-2.49-3.63-4.3-.79-1.81-1.19-3.86-1.19-6.14,0-2.76.52-5.03,1.55-6.81,1.04-1.78,2.44-3.07,4.2-3.89,1.76-.81,3.76-1.22,6.01-1.22,2.42,0,4.44.53,6.06,1.58s2.83,2.48,3.63,4.27c.79,1.8,1.19,3.83,1.19,6.11,0,2.8-.52,5.09-1.55,6.87-1.04,1.78-2.44,3.07-4.2,3.89-1.76.81-3.77,1.22-6.01,1.22-2.42,0-4.44-.53-6.06-1.58ZM517.38,471.76c0-2.52-.54-4.53-1.63-6.04-1.09-1.5-2.72-2.25-4.9-2.25-2.42,0-4.15.73-5.21,2.2-1.05,1.47-1.58,3.5-1.58,6.09s.55,4.59,1.66,6.11c1.1,1.52,2.76,2.28,4.97,2.28,4.46,0,6.68-2.8,6.68-8.39Z"/>
    <path class="cls-3" d="M529.4,483.03c-1.62-.5-3.13-1.27-4.51-2.31l1.97-3.16c2.52,1.8,5.15,2.7,7.88,2.7,1.55,0,2.75-.27,3.58-.8.83-.53,1.24-1.32,1.24-2.36,0-.83-.37-1.55-1.11-2.15-.74-.6-2.05-1.15-3.91-1.63l-1.61-.41c-2.42-.62-4.19-1.44-5.31-2.46-1.12-1.02-1.68-2.37-1.68-4.07,0-1.28.36-2.41,1.09-3.39.73-.98,1.74-1.75,3.03-2.31,1.3-.55,2.75-.83,4.38-.83s3.05.18,4.48.54,2.89.98,4.38,1.84l-1.81,3.16c-1.42-.76-2.64-1.29-3.68-1.58-1.04-.29-2.14-.44-3.32-.44-1.24,0-2.22.25-2.93.75-.71.5-1.06,1.17-1.06,1.99,0,.73.28,1.29.86,1.68.57.4,1.56.79,2.98,1.17l1.61.41c1.97.52,3.55,1.11,4.74,1.76,1.19.66,2.06,1.44,2.62,2.36.55.92.83,2.01.83,3.29,0,1.38-.35,2.6-1.06,3.65s-1.75,1.87-3.13,2.46c-1.38.59-3.06.88-5.03.88s-3.87-.25-5.49-.75Z"/>
    <path class="cls-3" d="M566.24,461.4c1.42,1.04,2.46,2.42,3.13,4.15.67,1.73,1.01,3.61,1.01,5.65,0,2.63-.51,4.89-1.53,6.79-1.02,1.9-2.41,3.34-4.17,4.33-1.76.98-3.77,1.48-6.01,1.48-1.69,0-3.33-.23-4.92-.67v9.69h-4.46v-32.33l4.46-.52v2.02c1.24-.69,2.48-1.22,3.71-1.58,1.22-.36,2.37-.54,3.44-.54,2.14,0,3.92.52,5.34,1.55ZM562.07,479.3c1.09-.64,1.95-1.63,2.59-2.98.64-1.35.96-3.02.96-5.03,0-2.59-.52-4.51-1.55-5.75-1.04-1.24-2.5-1.87-4.4-1.87-2,0-3.97.57-5.91,1.71v14.09c1.62.52,3.14.78,4.56.78s2.67-.32,3.76-.96Z"/>
    <path class="cls-3" d="M588.52,459.95c.48.07,1,.17,1.55.31l-.83,4.61c-1.17-.41-2.25-.62-3.21-.62-1.11,0-2.12.24-3.06.73-.93.48-1.83,1.4-2.69,2.75v15.44h-4.46v-22.75l4.46-.47v3.26c.86-1.11,1.87-1.94,3-2.51,1.14-.57,2.35-.85,3.63-.85.59,0,1.12.03,1.61.1Z"/>
    <path class="cls-3" d="M608.96,461.66c1.33,1.21,1.99,3.11,1.99,5.7v15.8h-4.04l-.26-1.97c-2.38,1.73-5.13,2.59-8.24,2.59-1.31,0-2.49-.25-3.52-.75-1.04-.5-1.84-1.21-2.41-2.12s-.85-1.96-.85-3.14c0-1.9.67-3.48,2.02-4.74,1.35-1.26,3.14-2.18,5.39-2.77,2.24-.59,4.73-.92,7.46-.99v-1.14c0-1.55-.31-2.69-.93-3.39-.62-.71-1.68-1.06-3.16-1.06-2.52,0-5.15.9-7.88,2.69l-1.97-3.11c3.32-2.28,6.79-3.42,10.41-3.42,2.66,0,4.65.6,5.98,1.81ZM597.2,479.33c.54.45,1.34.67,2.41.67,2.35,0,4.65-.69,6.89-2.07v-5.39c-3.01.14-5.44.6-7.31,1.4s-2.8,1.92-2.8,3.37c0,.9.27,1.57.8,2.02ZM599.4,457.82l-1.71-2.02,8.08-6.58,2.64,3.68-9.02,4.92Z"/>
    <path class="cls-3" d="M636.7,460.47v.31l-9.07,22.38h-4.09l-9.28-22.38v-.31h4.87l5.49,14.61c.14.35.41,1.14.83,2.38l.31.99c.34-1.17.71-2.3,1.09-3.37l5.18-14.61h4.66Z"/>
    <path class="cls-3" d="M660.49,467.05v16.11h-4.46v-14.46c0-1.28-.13-2.27-.39-2.98s-.69-1.22-1.3-1.53-1.43-.47-2.46-.47-2.14.15-3.32.44c-1.17.29-2.28.68-3.32,1.17v17.82h-4.46v-22.69l4.46-.52v2.18c2.9-1.52,5.67-2.28,8.29-2.28,4.63,0,6.94,2.4,6.94,7.2Z"/>
    <path class="cls-3" d="M685.98,472.59h-15.8c.03,2.59.66,4.47,1.89,5.65,1.23,1.17,2.81,1.76,4.74,1.76,1.38,0,2.58-.17,3.6-.52,1.02-.34,2.15-.88,3.39-1.61l1.71,3.16c-2.83,1.83-5.8,2.75-8.91,2.75-3.32,0-5.97-.92-7.95-2.77-1.99-1.85-2.98-4.77-2.98-8.78,0-2.28.41-4.35,1.24-6.22.83-1.87,2.06-3.36,3.71-4.48s3.65-1.68,6.04-1.68c2,0,3.71.41,5.13,1.22s2.49,1.93,3.21,3.34c.73,1.42,1.09,3.04,1.09,4.87l-.1,3.32ZM672.43,464.92c-1.02,1.07-1.68,2.54-1.99,4.4h11.3v-.21c0-1.93-.44-3.38-1.32-4.35-.88-.97-2.13-1.45-3.76-1.45-1.8,0-3.2.54-4.22,1.61Z"/>
    <path class="cls-3" d="M709.24,461.5c1.24,1.11,1.87,2.9,1.87,5.39v16.27h-4.46v-14.46c0-1.28-.13-2.27-.39-2.98s-.69-1.22-1.3-1.53-1.43-.47-2.46-.47-2.13.14-3.29.41c-1.16.28-2.24.66-3.24,1.14v17.88h-4.46v-35.65l4.46-.52v15.08c2.83-1.48,5.56-2.23,8.19-2.23,2.14,0,3.83.55,5.08,1.66Z"/>
    <path class="cls-3" d="M721.11,482.2c-1.62-1.05-2.83-2.49-3.63-4.3-.79-1.81-1.19-3.86-1.19-6.14,0-2.76.52-5.03,1.55-6.81,1.04-1.78,2.44-3.07,4.2-3.89,1.76-.81,3.76-1.22,6.01-1.22,2.42,0,4.44.53,6.06,1.58s2.83,2.48,3.63,4.27c.79,1.8,1.19,3.83,1.19,6.11,0,2.8-.52,5.09-1.55,6.87-1.04,1.78-2.44,3.07-4.2,3.89-1.76.81-3.77,1.22-6.01,1.22-2.42,0-4.44-.53-6.06-1.58ZM734.27,471.76c0-2.52-.54-4.53-1.63-6.04-1.09-1.5-2.72-2.25-4.9-2.25-2.42,0-4.15.73-5.21,2.2-1.05,1.47-1.58,3.5-1.58,6.09s.55,4.59,1.66,6.11c1.1,1.52,2.76,2.28,4.97,2.28,4.46,0,6.68-2.8,6.68-8.39Z"/>
    <path class="cls-3" d="M424.79,521.97l9.9,11.81v.31h-5.44l-9.59-11.87v11.87h-4.46v-35.65l4.46-.52v23.94l9.64-10.47h4.92v.31l-9.43,10.26Z"/>
    <path class="cls-3" d="M451.78,510.88c.48.07,1,.17,1.55.31l-.83,4.61c-1.17-.41-2.25-.62-3.21-.62-1.11,0-2.12.24-3.06.73-.93.48-1.83,1.4-2.69,2.75v15.44h-4.46v-22.75l4.46-.47v3.26c.86-1.11,1.87-1.94,3-2.51,1.14-.57,2.35-.85,3.63-.85.59,0,1.12.03,1.61.1Z"/>
    <path class="cls-3" d="M472.22,512.59c1.33,1.21,1.99,3.11,1.99,5.7v15.8h-4.04l-.26-1.97c-2.38,1.73-5.13,2.59-8.24,2.59-1.31,0-2.49-.25-3.52-.75-1.04-.5-1.84-1.21-2.41-2.12s-.85-1.96-.85-3.14c0-1.9.67-3.48,2.02-4.74,1.35-1.26,3.14-2.18,5.39-2.77,2.24-.59,4.73-.92,7.46-.99v-1.14c0-1.55-.31-2.69-.93-3.39-.62-.71-1.68-1.06-3.16-1.06-2.52,0-5.15.9-7.88,2.69l-1.97-3.11c3.32-2.28,6.79-3.42,10.41-3.42,2.66,0,4.65.6,5.98,1.81ZM460.46,530.26c.54.45,1.34.67,2.41.67,2.35,0,4.65-.69,6.89-2.07v-5.39c-3.01.14-5.44.6-7.31,1.4s-2.8,1.92-2.8,3.37c0,.9.27,1.57.8,2.02Z"/>
    <path class="cls-3" d="M473.44,543.37l1.24-3.52c.62.24,1.17.41,1.66.52.48.1.99.16,1.5.16,1.17,0,2.03-.34,2.56-1.01.54-.67.8-1.7.8-3.08v-25.03l4.46-.52v25.44c0,2.66-.63,4.66-1.89,6.01s-3.07,2.02-5.42,2.02c-1.73,0-3.37-.33-4.92-.99ZM481.89,506.35c-.48-.29-.87-.68-1.17-1.17-.29-.48-.44-1-.44-1.55,0-.59.15-1.12.44-1.61s.68-.87,1.17-1.17c.48-.29,1-.44,1.55-.44.59,0,1.12.15,1.61.44.48.29.87.68,1.17,1.17.29.48.44,1.02.44,1.61,0,.55-.15,1.07-.44,1.55-.29.48-.68.87-1.17,1.17-.49.29-1.02.44-1.61.44-.55,0-1.07-.15-1.55-.44Z"/>
    <path class="cls-3" d="M508.18,512.59c1.33,1.21,1.99,3.11,1.99,5.7v15.8h-4.04l-.26-1.97c-2.38,1.73-5.13,2.59-8.24,2.59-1.31,0-2.49-.25-3.52-.75-1.04-.5-1.84-1.21-2.41-2.12s-.85-1.96-.85-3.14c0-1.9.67-3.48,2.02-4.74,1.35-1.26,3.14-2.18,5.39-2.77,2.24-.59,4.73-.92,7.46-.99v-1.14c0-1.55-.31-2.69-.93-3.39-.62-.71-1.68-1.06-3.16-1.06-2.52,0-5.15.9-7.88,2.69l-1.97-3.11c3.32-2.28,6.79-3.42,10.41-3.42,2.66,0,4.65.6,5.98,1.81ZM496.42,530.26c.54.45,1.34.67,2.41.67,2.35,0,4.65-.69,6.89-2.07v-5.39c-3.01.14-5.44.6-7.31,1.4s-2.8,1.92-2.8,3.37c0,.9.27,1.57.8,2.02Z"/>
  </g>
  <path class="cls-1" d="M162.63,389.75c10.33,0,18.7-8.37,18.7-18.7s-8.37-18.7-18.7-18.7v37.39h0ZM212.23,308.54c3.99,18.4,1.92,51.53-3.15,72.14-18.03,73.25-17.41,130.79-16.13,198.38-4.94-3.34-7.42-5.02-7.42-5.02-6.11-41.14-11.48-68.24-16.11-81.31l-6.81,20.9v-105.46c39.09-27.88,46.93-57.22,46.59-110.36,0,0,1.6,4.19,3.02,10.74ZM162.62,352.36c-10.33,0-18.7,8.37-18.7,18.7s8.37,18.7,18.7,18.7h0v-37.39h0ZM162.63,408.16v105.46l-11.79,49.4c-7.41-4.35-10.02-5.47-10.02-5.47,4.6-66.48,7.91-120.43,7.91-120.43-35.03,3.83-52.54,5.75-52.54,5.75,19.72-7.1,44.49-19.05,66.45-34.71Z"/>
  <path class="cls-2" d="M285.06,358.88v-43.49c-12.01,0-21.75,9.74-21.75,21.75,0,12.01,9.74,21.74,21.75,21.75h0ZM230.87,251.92c-.4,61.81,8.72,95.94,54.19,128.36v122.67s-7.92-24.3-7.92-24.3c-5.38,15.19-11.63,46.72-18.73,94.57,0,0-2.88,1.95-8.63,5.83,1.49-78.61,2.22-145.54-18.76-230.74-5.9-23.96-8.3-62.51-3.66-83.9,1.65-7.62,3.51-12.49,3.51-12.49ZM285.06,315.38h0v43.49s0,0,0,0c12.01,0,21.74-9.74,21.74-21.75,0-12.01-9.74-21.75-21.74-21.75h0ZM362.34,420.66s-20.37-2.23-61.11-6.69c0,0,3.85,62.76,9.2,140.08,0,0-3.04,1.3-11.66,6.36l-13.71-57.45v-122.67c25.54,18.21,54.35,32.11,77.28,40.37Z"/>
</svg>